<?xml version="1.0" encoding="UTF-8"?>
<svg xmlns="http://www.w3.org/2000/svg" xmlns:xlink="http://www.w3.org/1999/xlink" width="317.2pt" height="160.9pt" viewBox="0 0 317.2 160.9" version="1.1">
<defs>
<clipPath id="clip1">
  <path d="M 8 127 L 310 127 L 310 160.898438 L 8 160.898438 Z M 8 127 "/>
</clipPath>
</defs>
<g id="surface1">
<g clip-path="url(#clip1)" clip-rule="nonzero">
<path style=" stroke:none;fill-rule:evenodd;fill:rgb(7.446289%,8.227539%,6.272888%);fill-opacity:1;" d="M 21.292969 138.257813 L 11.902344 138.257813 C 10.816406 138.257813 9.957031 138.019531 9.324219 137.546875 C 8.691406 137.070313 8.375 136.382813 8.375 135.472656 C 8.375 134.679688 8.625 133.808594 9.125 132.859375 L 11.753906 127.851563 C 11.828125 127.71875 11.972656 127.652344 12.195313 127.652344 L 18.972656 127.652344 C 19.144531 127.652344 19.230469 127.695313 19.230469 127.789063 C 19.21875 127.808594 19.210938 127.832031 19.210938 127.851563 L 16.195313 133.589844 C 15.707031 134.515625 15.464844 135.179688 15.464844 135.582031 C 15.464844 136.148438 15.84375 136.433594 16.597656 136.433594 L 22.355469 136.433594 C 24.011719 136.433594 25.503906 135.175781 26.832031 132.660156 L 29.355469 127.851563 C 29.429688 127.71875 29.574219 127.652344 29.789063 127.652344 L 32.164063 127.652344 C 32.328125 127.652344 32.40625 127.695313 32.40625 127.789063 C 32.40625 127.820313 31.523438 129.511719 29.757813 132.859375 C 28.988281 134.324219 27.867188 135.566406 26.394531 136.585938 C 24.761719 137.699219 23.0625 138.257813 21.292969 138.257813 Z M 45.238281 138.257813 L 33.757813 138.257813 C 32.671875 138.257813 31.808594 138.03125 31.164063 137.578125 C 30.46875 137.101563 30.121094 136.417969 30.121094 135.519531 C 30.121094 134.820313 30.339844 134.0625 30.78125 133.246094 L 33.613281 127.851563 C 33.6875 127.71875 33.832031 127.652344 34.046875 127.652344 L 41.015625 127.652344 C 41.167969 127.652344 41.253906 127.695313 41.253906 127.789063 C 41.253906 127.808594 41.246094 127.832031 41.234375 127.851563 L 37.996094 134.003906 C 37.597656 134.769531 37.394531 135.3125 37.394531 135.644531 C 37.394531 136.171875 37.851563 136.433594 38.765625 136.433594 L 46.207031 136.433594 C 46.363281 136.433594 46.441406 136.480469 46.441406 136.570313 C 46.441406 136.59375 46.4375 136.613281 46.425781 136.632813 L 45.675781 138.054688 C 45.601563 138.191406 45.457031 138.257813 45.238281 138.257813 Z M 58.175781 129.476563 L 53.664063 138.054688 C 53.589844 138.191406 53.449219 138.257813 53.242188 138.257813 L 46.621094 138.257813 C 46.480469 138.257813 46.40625 138.210938 46.40625 138.117188 C 46.40625 138.097656 47.914063 135.214844 50.9375 129.476563 L 45.839844 129.476563 C 45.664063 129.476563 45.585938 129.429688 45.585938 129.335938 C 45.585938 129.324219 45.839844 128.832031 46.351563 127.851563 C 46.425781 127.71875 46.570313 127.652344 46.789063 127.652344 L 64.425781 127.652344 C 64.585938 127.652344 64.664063 127.695313 64.664063 127.789063 C 64.664063 127.808594 64.410156 128.308594 63.898438 129.289063 C 63.824219 129.414063 63.679688 129.476563 63.457031 129.476563 Z M 67.148438 138.257813 L 60.550781 138.257813 C 60.394531 138.257813 60.316406 138.210938 60.316406 138.117188 C 60.316406 138.097656 62.113281 134.675781 65.707031 127.851563 C 65.78125 127.71875 65.914063 127.652344 66.121094 127.652344 L 72.742188 127.652344 C 72.890625 127.652344 72.960938 127.695313 72.960938 127.789063 C 72.960938 127.808594 71.164063 131.234375 67.570313 138.054688 C 67.496094 138.191406 67.355469 138.257813 67.148438 138.257813 Z M 92.570313 138.257813 L 86.011719 138.257813 C 85.839844 138.257813 85.753906 138.210938 85.753906 138.117188 C 85.753906 138.097656 86.484375 136.695313 87.949219 133.914063 L 80.035156 138.179688 C 79.925781 138.242188 79.65625 138.273438 79.230469 138.273438 C 78.707031 138.273438 78.414063 138.246094 78.355469 138.195313 L 74.257813 133.914063 L 72.085938 138.054688 C 72.011719 138.191406 71.867188 138.257813 71.644531 138.257813 L 69.121094 138.257813 C 68.953125 138.257813 68.867188 138.210938 68.867188 138.117188 C 68.867188 138.097656 70.664063 134.675781 74.257813 127.851563 C 74.332031 127.71875 74.480469 127.652344 74.699219 127.652344 L 77.382813 127.652344 C 77.496094 127.652344 77.574219 127.675781 77.621094 127.726563 L 82.613281 134.5625 L 95.460938 127.726563 C 95.542969 127.675781 95.640625 127.652344 95.753906 127.652344 L 98.144531 127.652344 C 98.316406 127.652344 98.402344 127.695313 98.402344 127.789063 C 98.402344 127.808594 96.605469 131.234375 93.011719 138.054688 C 92.9375 138.191406 92.789063 138.257813 92.570313 138.257813 Z M 122.527344 138.257813 L 114.339844 138.257813 C 114.230469 138.257813 114.15625 138.230469 114.121094 138.179688 L 108.910156 131.375 L 99.882813 136.433594 L 109.570313 136.433594 C 109.726563 136.433594 109.804688 136.480469 109.804688 136.570313 C 109.804688 136.59375 109.550781 137.085938 109.039063 138.054688 C 108.976563 138.191406 108.839844 138.257813 108.617188 138.257813 L 94.582031 138.257813 C 94.386719 138.257813 94.289063 138.214844 94.289063 138.132813 C 94.289063 138.070313 94.355469 138.003906 94.492188 137.933594 L 112.949219 127.726563 C 113.035156 127.675781 113.140625 127.652344 113.261719 127.652344 L 115.199219 127.652344 C 115.308594 127.652344 115.386719 127.675781 115.4375 127.726563 C 120.453125 134.5625 122.964844 137.996094 122.964844 138.023438 C 122.964844 138.179688 122.820313 138.257813 122.527344 138.257813 Z M 135.867188 129.476563 L 131.355469 138.054688 C 131.28125 138.191406 131.140625 138.257813 130.933594 138.257813 L 124.316406 138.257813 C 124.171875 138.257813 124.097656 138.210938 124.097656 138.117188 C 124.097656 138.097656 125.609375 135.214844 128.632813 129.476563 L 123.53125 129.476563 C 123.359375 129.476563 123.277344 129.429688 123.277344 129.335938 C 123.277344 129.324219 123.53125 128.832031 124.039063 127.851563 C 124.117188 127.71875 124.261719 127.652344 124.480469 127.652344 L 142.117188 127.652344 C 142.277344 127.652344 142.355469 127.695313 142.355469 127.789063 C 142.355469 127.808594 142.101563 128.308594 141.589844 129.289063 C 141.515625 129.414063 141.371094 129.476563 141.148438 129.476563 Z M 158.382813 133.402344 L 149.574219 133.402344 C 149.429688 133.402344 149.355469 133.355469 149.355469 133.261719 C 149.355469 133.242188 149.613281 132.742188 150.121094 131.761719 C 150.195313 131.628906 150.335938 131.5625 150.539063 131.5625 L 159.351563 131.5625 C 159.511719 131.5625 159.589844 131.613281 159.589844 131.71875 C 159.589844 131.726563 159.328125 132.222656 158.804688 133.203125 C 158.746094 133.335938 158.605469 133.402344 158.382813 133.402344 Z M 155.808594 138.257813 L 143.433594 138.257813 C 142.324219 138.257813 141.449219 138.023438 140.804688 137.5625 C 140.121094 137.054688 139.78125 136.34375 139.78125 135.425781 C 139.78125 134.65625 140.015625 133.828125 140.492188 132.953125 C 141.285156 131.46875 142.414063 130.238281 143.890625 129.257813 C 145.496094 128.1875 147.210938 127.652344 149.027344 127.652344 L 161.398438 127.652344 C 161.558594 127.652344 161.636719 127.695313 161.636719 127.789063 C 161.636719 127.808594 161.632813 127.832031 161.621094 127.851563 L 160.871094 129.289063 C 160.808594 129.414063 160.664063 129.476563 160.429688 129.476563 L 152.117188 129.476563 C 151.246094 129.476563 150.539063 129.71875 149.996094 130.203125 C 149.617188 130.519531 149.214844 131.089844 148.789063 131.902344 L 147.914063 133.589844 C 147.4375 134.472656 147.199219 135.125 147.199219 135.535156 C 147.199219 136.132813 147.621094 136.433594 148.460938 136.433594 L 156.777344 136.433594 C 156.945313 136.433594 157.03125 136.480469 157.03125 136.570313 C 157.019531 136.59375 157.015625 136.613281 157.015625 136.632813 L 156.265625 138.054688 C 156.191406 138.191406 156.039063 138.257813 155.808594 138.257813 Z M 186.144531 133.402344 L 177.335938 133.402344 C 177.191406 133.402344 177.117188 133.355469 177.117188 133.261719 C 177.117188 133.242188 177.371094 132.742188 177.886719 131.761719 C 177.953125 131.628906 178.097656 131.5625 178.304688 131.5625 L 187.113281 131.5625 C 187.261719 131.5625 187.335938 131.613281 187.335938 131.71875 C 187.335938 131.726563 187.078125 132.222656 186.566406 133.203125 C 186.503906 133.335938 186.367188 133.402344 186.144531 133.402344 Z M 172.878906 138.257813 L 165.914063 138.257813 C 165.757813 138.257813 165.675781 138.210938 165.675781 138.117188 C 165.675781 138.085938 166.628906 136.273438 168.527344 132.675781 C 169.257813 131.285156 170.367188 130.113281 171.855469 129.164063 C 173.425781 128.15625 175.070313 127.652344 176.789063 127.652344 L 189.160156 127.652344 C 189.320313 127.652344 189.398438 127.695313 189.398438 127.789063 C 189.398438 127.808594 189.394531 127.832031 189.382813 127.851563 L 188.632813 129.289063 C 188.558594 129.414063 188.414063 129.476563 188.191406 129.476563 L 179.878906 129.476563 C 179.011719 129.476563 178.304688 129.71875 177.757813 130.203125 C 177.378906 130.519531 176.976563 131.089844 176.550781 131.902344 L 173.316406 138.054688 C 173.242188 138.191406 173.097656 138.257813 172.878906 138.257813 Z M 192.230469 138.257813 L 185.632813 138.257813 C 185.476563 138.257813 185.398438 138.210938 185.398438 138.117188 C 185.398438 138.097656 187.195313 134.675781 190.789063 127.851563 C 190.863281 127.71875 190.996094 127.652344 191.203125 127.652344 L 197.824219 127.652344 C 197.972656 127.652344 198.039063 127.695313 198.039063 127.789063 C 198.039063 127.808594 196.246094 131.234375 192.652344 138.054688 C 192.578125 138.191406 192.4375 138.257813 192.230469 138.257813 Z M 212.410156 138.257813 L 199.394531 138.257813 C 198.289063 138.257813 197.410156 138.023438 196.765625 137.5625 C 196.078125 137.054688 195.742188 136.34375 195.742188 135.425781 C 195.742188 134.65625 195.980469 133.828125 196.453125 132.953125 C 197.257813 131.46875 198.390625 130.238281 199.851563 129.257813 C 201.460938 128.1875 203.171875 127.652344 204.988281 127.652344 L 216.683594 127.652344 C 216.855469 127.652344 216.941406 127.695313 216.941406 127.789063 C 216.941406 127.808594 216.933594 127.832031 216.921875 127.851563 L 216.171875 129.289063 C 216.101563 129.414063 215.953125 129.476563 215.734375 129.476563 L 208.078125 129.476563 C 207.210938 129.476563 206.503906 129.71875 205.953125 130.203125 C 205.578125 130.519531 205.175781 131.089844 204.746094 131.902344 L 203.871094 133.589844 C 203.398438 134.472656 203.160156 135.125 203.160156 135.535156 C 203.160156 136.132813 203.578125 136.433594 204.421875 136.433594 L 206.46875 136.433594 L 209.078125 131.453125 C 209.15625 131.320313 209.300781 131.253906 209.519531 131.253906 L 216.078125 131.253906 C 216.253906 131.253906 216.339844 131.300781 216.339844 131.390625 C 216.339844 131.414063 215.175781 133.632813 212.847656 138.054688 C 212.773438 138.191406 212.628906 138.257813 212.410156 138.257813 Z M 233.863281 138.257813 L 227.265625 138.257813 C 227.121094 138.257813 227.046875 138.210938 227.046875 138.117188 C 227.046875 138.097656 227.871094 136.527344 229.515625 133.402344 L 223.941406 133.402344 L 221.492188 138.054688 C 221.429688 138.191406 221.289063 138.257813 221.070313 138.257813 L 214.472656 138.257813 C 214.316406 138.257813 214.234375 138.210938 214.234375 138.117188 C 214.234375 138.097656 216.035156 134.675781 219.628906 127.851563 C 219.699219 127.71875 219.839844 127.652344 220.046875 127.652344 L 226.664063 127.652344 C 226.808594 127.652344 226.882813 127.695313 226.882813 127.789063 C 226.882813 127.808594 226.226563 129.066406 224.910156 131.5625 L 230.464844 131.5625 L 232.421875 127.851563 C 232.496094 127.71875 232.640625 127.652344 232.859375 127.652344 L 239.453125 127.652344 C 239.605469 127.652344 239.675781 127.695313 239.675781 127.789063 C 239.675781 127.808594 237.886719 131.234375 234.304688 138.054688 C 234.230469 138.191406 234.085938 138.257813 233.863281 138.257813 Z M 252.453125 129.476563 L 247.9375 138.054688 C 247.863281 138.191406 247.722656 138.257813 247.515625 138.257813 L 240.902344 138.257813 C 240.753906 138.257813 240.683594 138.210938 240.683594 138.117188 C 240.683594 138.097656 242.191406 135.214844 245.214844 129.476563 L 240.113281 129.476563 C 239.945313 129.476563 239.859375 129.429688 239.859375 129.335938 C 239.859375 129.324219 240.113281 128.832031 240.628906 127.851563 C 240.699219 127.71875 240.847656 127.652344 241.066406 127.652344 L 258.703125 127.652344 C 258.859375 127.652344 258.941406 127.695313 258.941406 127.789063 C 258.941406 127.808594 258.683594 128.308594 258.171875 129.289063 C 258.097656 129.414063 257.953125 129.476563 257.734375 129.476563 Z M 261.425781 138.257813 L 254.828125 138.257813 C 254.664063 138.257813 254.589844 138.210938 254.589844 138.117188 C 254.589844 138.097656 256.386719 134.675781 259.980469 127.851563 C 260.054688 127.71875 260.195313 127.652344 260.402344 127.652344 L 267.019531 127.652344 C 267.164063 127.652344 267.238281 127.695313 267.238281 127.789063 C 267.238281 127.808594 265.441406 131.234375 261.84375 138.054688 C 261.773438 138.191406 261.632813 138.257813 261.425781 138.257813 Z M 285.109375 138.257813 L 282.1875 138.257813 C 281.90625 138.257813 281.539063 138.179688 281.089844 138.023438 L 268.570313 133.773438 L 266.324219 138.054688 C 266.246094 138.191406 266.105469 138.257813 265.882813 138.257813 L 263.363281 138.257813 C 263.191406 138.257813 263.105469 138.210938 263.105469 138.117188 C 263.105469 138.097656 263.113281 138.078125 263.121094 138.054688 L 268.496094 127.851563 C 268.570313 127.71875 268.71875 127.652344 268.9375 127.652344 L 271.746094 127.652344 C 271.984375 127.652344 272.289063 127.71875 272.683594 127.851563 L 285.441406 132.210938 L 287.742188 127.851563 C 287.804688 127.71875 287.949219 127.652344 288.183594 127.652344 L 290.703125 127.652344 C 290.863281 127.652344 290.941406 127.695313 290.941406 127.789063 C 290.941406 127.808594 290.933594 127.832031 290.921875 127.851563 L 285.550781 138.054688 C 285.488281 138.191406 285.34375 138.257813 285.109375 138.257813 Z M 305.34375 138.257813 L 292.328125 138.257813 C 291.222656 138.257813 290.34375 138.023438 289.699219 137.5625 C 289.015625 137.054688 288.675781 136.34375 288.675781 135.425781 C 288.675781 134.65625 288.914063 133.828125 289.386719 132.953125 C 290.191406 131.46875 291.324219 130.238281 292.789063 129.257813 C 294.394531 128.1875 296.105469 127.652344 297.921875 127.652344 L 309.621094 127.652344 C 309.789063 127.652344 309.871094 127.695313 309.871094 127.789063 C 309.871094 127.808594 309.871094 127.832031 309.855469 127.851563 L 309.109375 129.289063 C 309.035156 129.414063 308.886719 129.476563 308.664063 129.476563 L 301.011719 129.476563 C 300.144531 129.476563 299.441406 129.71875 298.890625 130.203125 C 298.515625 130.519531 298.113281 131.089844 297.683594 131.902344 L 296.808594 133.589844 C 296.328125 134.472656 296.09375 135.125 296.09375 135.535156 C 296.09375 136.132813 296.515625 136.433594 297.355469 136.433594 L 299.402344 136.433594 L 302.015625 131.453125 C 302.089844 131.320313 302.234375 131.253906 302.453125 131.253906 L 309.015625 131.253906 C 309.1875 131.253906 309.273438 131.300781 309.273438 131.390625 C 309.273438 131.414063 308.109375 133.632813 305.78125 138.054688 C 305.703125 138.191406 305.5625 138.257813 305.34375 138.257813 Z M 55.324219 160.882813 L 39.078125 160.882813 C 37.621094 160.882813 36.46875 160.519531 35.621094 159.800781 C 34.722656 159.015625 34.277344 157.914063 34.277344 156.488281 C 34.277344 155.289063 34.582031 154.007813 35.1875 152.648438 C 36.246094 150.34375 37.742188 148.433594 39.671875 146.914063 C 41.789063 145.25 44.027344 144.417969 46.394531 144.417969 L 62.664063 144.417969 C 62.871094 144.417969 62.980469 144.488281 62.980469 144.632813 C 62.980469 144.664063 62.972656 144.695313 62.957031 144.730469 L 61.972656 146.960938 C 61.871094 147.152344 61.683594 147.25 61.394531 147.25 L 50.453125 147.25 C 49.316406 147.25 48.394531 147.625 47.691406 148.378906 C 47.195313 148.875 46.664063 149.753906 46.109375 151.015625 L 44.933594 153.632813 C 44.324219 155.007813 44.019531 156.015625 44.019531 156.65625 C 44.019531 157.585938 44.5625 158.050781 45.652344 158.050781 L 56.597656 158.050781 C 56.804688 158.050781 56.910156 158.121094 56.910156 158.265625 C 56.910156 158.296875 56.898438 158.328125 56.882813 158.359375 L 55.898438 160.570313 C 55.804688 160.777344 55.613281 160.882813 55.324219 160.882813 Z M 275.296875 153.34375 L 266.152344 153.34375 C 265.945313 153.34375 265.839844 153.273438 265.839844 153.128906 C 265.839844 153.082031 265.847656 153.050781 265.863281 153.035156 L 266.847656 150.800781 C 266.929688 150.59375 267.121094 150.488281 267.425781 150.488281 L 270.519531 150.488281 C 271.144531 150.488281 271.746094 150.351563 272.320313 150.082031 C 272.976563 149.777344 273.414063 149.371094 273.640625 148.855469 C 273.71875 148.648438 273.761719 148.472656 273.761719 148.328125 C 273.761719 147.609375 273.160156 147.25 271.960938 147.25 L 267.039063 147.25 L 261.113281 160.570313 C 261.015625 160.777344 260.824219 160.882813 260.535156 160.882813 L 251.921875 160.882813 C 251.695313 160.882813 251.585938 160.808594 251.585938 160.664063 C 251.585938 160.632813 253.945313 155.320313 258.664063 144.730469 C 258.761719 144.519531 258.953125 144.417969 259.242188 144.417969 L 279.855469 144.417969 C 280.914063 144.417969 281.769531 144.609375 282.425781 144.992188 C 283.257813 145.488281 283.671875 146.21875 283.671875 147.175781 C 283.671875 148.410156 283.097656 149.59375 281.945313 150.730469 C 280.183594 152.472656 277.96875 153.34375 275.296875 153.34375 Z M 80.105469 156.941406 L 73.996094 156.941406 C 73.867188 156.941406 73.792969 156.890625 73.792969 156.789063 C 73.792969 156.765625 74.558594 155.046875 76.082031 151.632813 L 70.917969 151.632813 L 68.65625 156.71875 C 68.601563 156.867188 68.472656 156.941406 68.269531 156.941406 L 62.164063 156.941406 C 62.019531 156.941406 61.945313 156.890625 61.945313 156.789063 C 61.945313 156.765625 63.609375 153.023438 66.933594 145.5625 C 66.996094 145.414063 67.128906 145.339844 67.320313 145.339844 L 73.441406 145.339844 C 73.578125 145.339844 73.644531 145.390625 73.644531 145.492188 C 73.644531 145.515625 73.035156 146.890625 71.820313 149.617188 L 76.960938 149.617188 L 78.769531 145.5625 C 78.835938 145.414063 78.972656 145.339844 79.175781 145.339844 L 85.277344 145.339844 C 85.414063 145.339844 85.480469 145.390625 85.480469 145.492188 C 85.480469 145.515625 83.824219 149.257813 80.511719 156.71875 C 80.441406 156.867188 80.308594 156.941406 80.105469 156.941406 Z M 107.445313 156.941406 L 99.871094 156.941406 C 99.769531 156.941406 99.699219 156.914063 99.664063 156.855469 L 94.847656 149.417969 L 86.496094 154.945313 L 95.457031 154.945313 C 95.605469 154.945313 95.675781 154.996094 95.675781 155.097656 C 95.675781 155.121094 95.441406 155.660156 94.964844 156.71875 C 94.910156 156.867188 94.78125 156.941406 94.578125 156.941406 L 81.59375 156.941406 C 81.410156 156.941406 81.320313 156.894531 81.320313 156.804688 C 81.320313 156.738281 81.382813 156.664063 81.507813 156.585938 L 98.585938 145.425781 C 98.664063 145.371094 98.757813 145.339844 98.871094 145.339844 L 100.664063 145.339844 C 100.765625 145.339844 100.839844 145.371094 100.882813 145.425781 C 105.527344 152.898438 107.851563 156.652344 107.851563 156.6875 C 107.851563 156.855469 107.714844 156.941406 107.445313 156.941406 Z M 130.609375 156.941406 L 124.539063 156.941406 C 124.382813 156.941406 124.300781 156.890625 124.300781 156.789063 C 124.300781 156.765625 124.980469 155.234375 126.328125 152.1875 L 119.011719 156.855469 C 118.910156 156.921875 118.660156 156.957031 118.265625 156.957031 C 117.78125 156.957031 117.511719 156.929688 117.453125 156.871094 L 113.664063 152.1875 L 111.65625 156.71875 C 111.585938 156.867188 111.453125 156.941406 111.246094 156.941406 L 108.914063 156.941406 C 108.757813 156.941406 108.679688 156.890625 108.679688 156.789063 C 108.679688 156.765625 110.34375 153.023438 113.664063 145.5625 C 113.734375 145.414063 113.871094 145.339844 114.074219 145.339844 L 116.558594 145.339844 C 116.660156 145.339844 116.734375 145.371094 116.777344 145.425781 L 121.394531 152.898438 L 133.28125 145.425781 C 133.359375 145.371094 133.449219 145.339844 133.550781 145.339844 L 135.765625 145.339844 C 135.921875 145.339844 136.003906 145.390625 136.003906 145.492188 C 136.003906 145.515625 134.339844 149.257813 131.015625 156.71875 C 130.945313 156.867188 130.8125 156.941406 130.609375 156.941406 Z M 149.054688 151.632813 L 142.613281 151.632813 C 142.46875 151.632813 142.394531 151.582031 142.394531 151.480469 C 142.394531 151.445313 142.398438 151.421875 142.410156 151.410156 L 143.105469 149.839844 C 143.160156 149.691406 143.296875 149.617188 143.511719 149.617188 L 145.691406 149.617188 C 146.128906 149.617188 146.554688 149.523438 146.960938 149.332031 C 147.421875 149.117188 147.730469 148.828125 147.890625 148.46875 C 147.945313 148.324219 147.972656 148.199219 147.972656 148.097656 C 147.972656 147.589844 147.550781 147.335938 146.703125 147.335938 L 143.238281 147.335938 L 139.0625 156.71875 C 138.996094 156.867188 138.859375 156.941406 138.65625 156.941406 L 132.585938 156.941406 C 132.429688 156.941406 132.351563 156.890625 132.351563 156.789063 C 132.351563 156.765625 134.011719 153.023438 137.339844 145.5625 C 137.40625 145.414063 137.539063 145.339844 137.746094 145.339844 L 152.269531 145.339844 C 153.011719 145.339844 153.613281 145.476563 154.078125 145.746094 C 154.664063 146.097656 154.953125 146.609375 154.953125 147.285156 C 154.953125 148.152344 154.550781 148.988281 153.738281 149.789063 C 152.496094 151.015625 150.9375 151.632813 149.054688 151.632813 Z M 158.152344 156.941406 L 152.046875 156.941406 C 151.902344 156.941406 151.828125 156.890625 151.828125 156.789063 C 151.828125 156.765625 153.492188 153.023438 156.816406 145.5625 C 156.882813 145.414063 157.015625 145.339844 157.203125 145.339844 L 163.324219 145.339844 C 163.460938 145.339844 163.527344 145.390625 163.527344 145.492188 C 163.527344 145.515625 161.867188 149.257813 158.539063 156.71875 C 158.472656 156.867188 158.34375 156.941406 158.152344 156.941406 Z M 173.285156 156.941406 L 164.59375 156.941406 C 163.570313 156.941406 162.757813 156.6875 162.160156 156.179688 C 161.515625 155.628906 161.195313 154.847656 161.195313 153.847656 C 161.195313 153.035156 161.414063 152.132813 161.855469 151.140625 C 162.566406 149.527344 163.613281 148.183594 164.996094 147.101563 C 166.511719 145.925781 168.09375 145.339844 169.746094 145.339844 L 178.441406 145.339844 C 179.480469 145.339844 180.296875 145.589844 180.894531 146.085938 C 181.535156 146.613281 181.859375 147.382813 181.859375 148.382813 C 181.859375 149.207031 181.632813 150.125 181.179688 151.140625 C 180.480469 152.730469 179.429688 154.070313 178.019531 155.164063 C 176.496094 156.347656 174.914063 156.941406 173.285156 156.941406 Z M 175.058594 148.214844 C 175.058594 147.628906 174.644531 147.335938 173.808594 147.335938 L 172.320313 147.335938 C 171.554688 147.335938 170.921875 147.613281 170.425781 148.164063 C 170.113281 148.515625 169.761719 149.125 169.378906 149.992188 L 168.550781 151.832031 C 168.101563 152.835938 167.871094 153.5625 167.871094 154.015625 C 167.871094 154.636719 168.230469 154.945313 168.941406 154.945313 L 170.425781 154.945313 C 171.214844 154.945313 171.902344 154.601563 172.492188 153.914063 C 172.871094 153.460938 173.273438 152.769531 173.691406 151.832031 L 174.519531 149.992188 C 174.878906 149.167969 175.058594 148.578125 175.058594 148.214844 Z M 199.882813 156.941406 L 197.175781 156.941406 C 196.914063 156.941406 196.578125 156.855469 196.160156 156.6875 L 184.578125 152.035156 L 182.496094 156.71875 C 182.433594 156.867188 182.296875 156.941406 182.09375 156.941406 L 179.761719 156.941406 C 179.601563 156.941406 179.523438 156.890625 179.523438 156.789063 C 179.523438 156.765625 179.53125 156.742188 179.539063 156.71875 L 184.511719 145.5625 C 184.578125 145.414063 184.714844 145.339844 184.914063 145.339844 L 187.519531 145.339844 C 187.734375 145.339844 188.023438 145.414063 188.382813 145.5625 L 200.1875 150.328125 L 202.316406 145.5625 C 202.371094 145.414063 202.507813 145.339844 202.722656 145.339844 L 205.054688 145.339844 C 205.203125 145.339844 205.273438 145.390625 205.273438 145.492188 C 205.273438 145.515625 205.269531 145.539063 205.257813 145.5625 L 200.289063 156.71875 C 200.230469 156.867188 200.09375 156.941406 199.882813 156.941406 Z M 211.71875 156.941406 L 201.976563 156.941406 C 201.820313 156.941406 201.742188 156.890625 201.742188 156.789063 C 201.753906 156.765625 201.757813 156.742188 201.757813 156.71875 L 202.453125 155.164063 C 202.519531 155.019531 202.65625 154.945313 202.855469 154.945313 L 210.363281 154.945313 L 206.136719 151.089844 C 205.324219 150.355469 204.921875 149.617188 204.921875 148.875 C 204.921875 148.019531 205.40625 147.269531 206.371094 146.625 C 207.128906 146.128906 208.007813 145.769531 209.011719 145.542969 C 209.65625 145.410156 210.296875 145.339844 210.9375 145.339844 L 221.269531 145.339844 C 221.414063 145.339844 221.488281 145.390625 221.488281 145.492188 C 221.488281 145.515625 221.484375 145.539063 221.472656 145.5625 L 220.78125 147.132813 C 220.710938 147.269531 220.578125 147.335938 220.371094 147.335938 L 212.816406 147.335938 L 216.992188 151.242188 C 218.027344 152.210938 218.546875 153.109375 218.546875 153.929688 C 218.546875 155.070313 217.644531 155.898438 215.84375 156.417969 C 214.621094 156.765625 213.246094 156.941406 211.71875 156.941406 Z M 236.621094 156.941406 L 230.519531 156.941406 C 230.382813 156.941406 230.316406 156.890625 230.316406 156.789063 C 230.316406 156.765625 231.078125 155.046875 232.597656 151.632813 L 227.441406 151.632813 L 225.175781 156.71875 C 225.121094 156.867188 224.988281 156.941406 224.785156 156.941406 L 218.683594 156.941406 C 218.535156 156.941406 218.464844 156.890625 218.464844 156.789063 C 218.464844 156.765625 220.121094 153.023438 223.453125 145.5625 C 223.519531 145.414063 223.648438 145.339844 223.839844 145.339844 L 229.960938 145.339844 C 230.097656 145.339844 230.164063 145.390625 230.164063 145.492188 C 230.164063 145.515625 229.554688 146.890625 228.335938 149.617188 L 233.476563 149.617188 L 235.289063 145.5625 C 235.355469 145.414063 235.488281 145.339844 235.691406 145.339844 L 241.796875 145.339844 C 241.933594 145.339844 241.996094 145.390625 241.996094 145.492188 C 241.996094 145.515625 240.34375 149.257813 237.027344 156.71875 C 236.960938 156.867188 236.824219 156.941406 236.621094 156.941406 Z M 244.433594 156.941406 L 238.328125 156.941406 C 238.183594 156.941406 238.109375 156.890625 238.109375 156.789063 C 238.109375 156.765625 239.773438 153.023438 243.097656 145.5625 C 243.164063 145.414063 243.296875 145.339844 243.488281 145.339844 L 249.609375 145.339844 C 249.742188 145.339844 249.8125 145.390625 249.8125 145.492188 C 249.8125 145.515625 248.148438 149.257813 244.824219 156.71875 C 244.753906 156.867188 244.621094 156.941406 244.433594 156.941406 Z M 244.433594 156.941406 "/>
</g>
<path style=" stroke:none;fill-rule:evenodd;fill:rgb(100%,0%,0%);fill-opacity:1;" d="M 26.691406 1.402344 L 65.445313 1.402344 L 45.136719 71.464844 C 43.46875 77.210938 45.402344 81.21875 53.886719 79.964844 C 59.773438 79.09375 61.894531 76.199219 63.136719 72.214844 L 85.136719 1.464844 L 119.136719 1.464844 L 95.386719 89.71875 C 93.230469 97.734375 88.230469 104.09375 80.140625 104.21875 L 15.136719 105.21875 C 9.832031 105.300781 0.0117188 97.523438 2.523438 88.46875 Z M 26.691406 1.402344 "/>
<path style=" stroke:none;fill-rule:evenodd;fill:rgb(100%,0%,0%);fill-opacity:1;" d="M 294.390625 80.339844 L 248.265625 80.089844 C 244.996094 80.074219 245.003906 77.570313 245.765625 74.839844 L 260.140625 23.214844 C 260.738281 21.230469 262.109375 19.566406 264.265625 19.589844 L 311.015625 20.089844 C 317.261719 7.527344 303.496094 -0.046875 294.890625 -0.046875 L 241.640625 -0.046875 C 233.011719 -0.046875 228.921875 6.105469 227.140625 12.839844 L 207.136719 88.464844 C 203.765625 99.246094 211.871094 105.226563 217.011719 105.214844 L 277.511719 105.089844 C 281.078125 105.082031 294.453125 97.503906 294.390625 80.339844 Z M 294.390625 80.339844 "/>
<path style=" stroke:none;fill-rule:evenodd;fill:rgb(100%,0%,0%);fill-opacity:1;" d="M 155.636719 65.464844 C 155.941406 64.332031 156.410156 63.488281 157.761719 63.464844 L 197.261719 62.714844 L 204.011719 39.210938 L 125.632813 39.335938 L 107.257813 104.085938 L 145.257813 104.085938 Z M 155.636719 65.464844 "/>
<path style=" stroke:none;fill-rule:evenodd;fill:rgb(100%,0%,0%);fill-opacity:1;" d="M 137.507813 -0.046875 L 130.507813 24.457031 L 208.382813 24.832031 L 215.757813 -0.046875 Z M 137.507813 -0.046875 "/>
</g>
</svg>
